:SAMPLES-PER-SECOND 30
:FULLY-SPECIFIED
:DEGREES
78
root  -23.3033 22.0002 3.08692 126.597 55.519 130.616
RightUpLeg  16.3973 -11.1847 -16.9041
RightLeg  94.4284 10.4667 5.52901
RightFoot  -16.5275 -0.41964 -13.9239
RightToes  -4.65663e-010 -1.59028e-015 9.93923e-017
Spine  68.5608 -14.1851 12.3487
Spine1  12.7045 -5.03725 -16.2939
HEad  -66.7406 -21.6995 17.3853
LeftShoulder1  9.93923e-017 0 1.22299e-017
LeftArm  36.6435 -6.89353 -80.133
LeftForeArm  -30.1092 -38.4793 23.7445
LeftHand  0.30131 3.72674 7.17869
RightShoulder  1.98785e-016 -4.96962e-017 1.55301e-017
RightArm  -16.5835 22.8458 61.1152
RightForeArm  4.79653 -2.99882 -2.72129
RightHand  8.37954 -21.155 -44.0466
LeftUpLeg  -70.0261 -19.9837 -29.434
LeftLeg  88.0959 -12.9914 4.02045
LeftFoot  -9.87455 0.100278 -4.20693
LeftToes  3.34876e-009 -9.68256e-011 -6.12847e-011
79
root  -22.9036 22.1463 2.60287 124.527 56.6477 128.398
RightUpLeg  17.824 -8.72787 -18.4229
RightLeg  92.8874 10.366 8.97262
RightFoot  -16.4162 -0.366627 -12.5596
RightToes  -4.65663e-010 -1.59028e-015 9.93923e-017
Spine  69.0435 -13.8602 12.9477
Spine1  11.8028 -4.04755 -16.673
HEad  -66.6937 -21.7875 17.1109
LeftShoulder1  9.93923e-017 0 1.22299e-017
LeftArm  37.3305 -2.28179 -82.1107
LeftForeArm  -31.1312 -37.6038 23.2193
LeftHand  0.363606 3.75046 5.3217
RightShoulder  1.98785e-016 -4.96962e-017 1.55301e-017
RightArm  -16.9325 21.1366 59.6568
RightForeArm  5.37234 -3.01463 -2.26083
RightHand  8.26699 -21.149 -43.3888
LeftUpLeg  -69.4124 -21.0969 -29.3961
LeftLeg  88.0362 -13.0713 6.88091
LeftFoot  -10.2627 0.0522841 -2.95977
LeftToes  3.34876e-009 -9.68256e-011 -6.12847e-011
80
root  -22.4301 22.4034 2.04829 122.794 57.6545 126.329
RightUpLeg  19.1732 -6.69859 -20.36
RightLeg  90.8096 10.593 12.5194
RightFoot  -16.053 -0.323551 -12.4618
RightToes  -4.65663e-010 -1.59028e-015 9.93923e-017
Spine  68.9324 -13.7082 13.9837
Spine1  11.0092 -2.92809 -17.0659
HEad  -66.9135 -22.3679 16.7359
LeftShoulder1  9.93923e-017 0 1.22299e-017
LeftArm  40.5954 1.33313 -84.5852
LeftForeArm  -32.9079 -36.0711 22.335
LeftHand  0.412896 3.65796 3.20786
RightShoulder  1.98785e-016 -4.96962e-017 1.55301e-017
RightArm  -16.7507 19.5402 57.6542
RightForeArm  5.58054 -2.7099 -1.6615
RightHand  7.98557 -20.9333 -42.3611
LeftUpLeg  -68.6747 -22.163 -29.5631
LeftLeg  88.0076 -13.1656 9.45181
LeftFoot  -11.6827 0.0083553 -2.89453
LeftToes  3.34876e-009 -9.68256e-011 -6.12847e-011
81
root  -21.9024 22.7961 1.47993 121.229 59.6398 124.428
RightUpLeg  20.2043 -4.51634 -20.7521
RightLeg  88.0071 11.2502 14.8905
RightFoot  -15.6296 -0.280207 -12.62
RightToes  -4.65663e-010 -1.59028e-015 9.93923e-017
Spine  68.8697 -13.2753 14.9126
Spine1  10.2995 -1.53645 -17.0187
HEad  -67.7007 -22.3034 16.4051
LeftShoulder1  9.93923e-017 0 1.22299e-017
LeftArm  44.352 4.5188 -86.4776
LeftForeArm  -35.0362 -34.9411 21.6631
LeftHand  0.496728 3.76777 1.02372
RightShoulder  1.98785e-016 -4.96962e-017 1.55301e-017
RightArm  -15.5148 18.6821 56.3141
RightForeArm  5.8375 -2.20278 -0.712549
RightHand  7.74008 -20.747 -41.4379
LeftUpLeg  -67.5313 -21.9776 -29.2377
LeftLeg  87.7016 -13.1806 11.259
LeftFoot  -13.4508 -0.0399928 -2.40201
LeftToes  3.34876e-009 -9.68256e-011 -6.12847e-011
82
root  -21.3434 23.3369 0.981011 119.784 62.3909 122.698
RightUpLeg  21.1343 -2.04869 -19.1237
RightLeg  84.2472 12.2631 15.7967
RightFoot  -14.9514 -0.187509 -11.5381
RightToes  -4.65663e-010 -1.59028e-015 9.93923e-017
Spine  69.0683 -12.3459 14.8019
Spine1  9.76745 -0.458359 -16.3941
HEad  -68.5093 -20.8384 16.4507
LeftShoulder1  9.93923e-017 0 1.22299e-017
LeftArm  46.7767 7.70445 -87.0748
LeftForeArm  -36.6551 -34.1339 21.1915
LeftHand  0.576709 3.92648 -0.9377
RightShoulder  1.98785e-016 -4.96962e-017 1.55301e-017
RightArm  -13.8919 18.6479 56.5921
RightForeArm  6.0771 -1.63238 0.364811
RightHand  6.92882 -20.1266 -38.1609
LeftUpLeg  -66.0725 -20.7876 -28.2111
LeftLeg  87.2039 -13.116 12.4899
LeftFoot  -15.1729 -0.0639006 -1.35427
LeftToes  3.34876e-009 -9.68256e-011 -6.12847e-011
83
root  -20.694 24.0792 0.575046 118.576 64.8241 120.831
RightUpLeg  22.0648 0.334125 -16.9057
RightLeg  79.2852 13.6172 16.0501
RightFoot  -13.6788 -0.0506929 -9.81604
RightToes  -4.65663e-010 -1.59028e-015 9.93923e-017
Spine  68.8741 -11.0849 13.4027
Spine1  9.47015 -0.185271 -15.627
HEad  -68.5576 -18.9498 16.6025
LeftShoulder1  9.93923e-017 0 1.22299e-017
LeftArm  49.3812 10.2952 -86.8092
LeftForeArm  -38.8927 -32.4676 20.3115
LeftHand  0.614184 3.80999 -2.70217
RightShoulder  1.98785e-016 -4.96962e-017 1.55301e-017
RightArm  -12.7919 18.9294 57.8917
RightForeArm  5.22299 -1.1539 1.32031
RightHand  5.02181 -18.2019 -29.9219
LeftUpLeg  -64.3323 -19.6043 -27.1256
LeftLeg  86.1896 -12.884 13.4505
LeftFoot  -16.7925 -0.0701443 -0.731593
LeftToes  3.34876e-009 -9.68256e-011 -6.12847e-011
84
root  -19.8929 25.0798 0.238393 116.97 66.8212 117.778
RightUpLeg  22.4135 2.61437 -15.3175
RightLeg  73.4071 15.3671 16.4262
RightFoot  -11.3923 0.13628 -8.668
RightToes  -4.65663e-010 -1.59028e-015 9.93923e-017
Spine  67.9965 -9.60383 11.3162
Spine1  8.97952 -0.240378 -15.2266
HEad  -67.9853 -18.1142 16.2051
LeftShoulder1  9.93923e-017 0 1.22299e-017
LeftArm  55.069 11.3676 -86.5412
LeftForeArm  -43.555 -29.623 18.8642
LeftHand  0.656008 3.59623 -4.83145
RightShoulder  1.98785e-016 -4.96962e-017 1.55301e-017
RightArm  -12.2667 19.0014 59.1455
RightForeArm  2.64484 -0.866448 2.23889
RightHand  3.0362 -15.4044 -19.3451
LeftUpLeg  -62.3417 -18.4055 -26.1843
LeftLeg  84.1967 -12.3399 13.9865
LeftFoot  -18.2932 -0.0833859 -0.701745
LeftToes  3.34876e-009 -9.68256e-011 -6.12847e-011
85
root  -18.9734 26.2884 -0.0621177 114.409 68.8707 112.82
RightUpLeg  21.1469 4.82848 -14.6086
RightLeg  67.8692 17.4754 17.4036
RightFoot  -6.64815 0.407862 -6.77469
RightToes  -4.65663e-010 -1.59028e-015 9.93923e-017
Spine  66.4745 -7.93316 9.21529
Spine1  7.84779 -0.0579494 -15.3919
HEad  -67.4795 -18.1994 15.2671
LeftShoulder1  9.93923e-017 0 1.22299e-017
LeftArm  64.2013 10.9756 -86.5538
LeftForeArm  -50.3584 -26.7496 17.536
LeftHand  0.72815 3.64298 -7.05912
RightShoulder  1.98785e-016 -4.96962e-017 1.55301e-017
RightArm  -11.8245 18.5527 60.4812
RightForeArm  1.035 0.801689 2.36838
RightHand  2.01883 -13.3521 -12.4627
LeftUpLeg  -60.5367 -16.9137 -25.0305
LeftLeg  81.1888 -11.4868 14.0918
LeftFoot  -19.5182 -0.0939588 -0.701808
LeftToes  3.34876e-009 -9.68256e-011 -6.12847e-011
86
root  -18.096 27.58 -0.297626 110.779 71.4504 107.011
RightUpLeg  18.5946 6.97407 -13.6614
RightLeg  63.9514 19.4585 18.6035
RightFoot  1.98998 0.234469 -1.78293
RightToes  -4.65663e-010 -1.59028e-015 9.93923e-017
Spine  65.429 -6.2691 7.39006
Spine1  6.00576 0.424037 -15.9327
HEad  -67.0582 -17.7915 14.5256
LeftShoulder1  9.93923e-017 0 1.22299e-017
LeftArm  67.0998 9.51414 -86.5746
LeftForeArm  -50.0849 -25.1214 13.6666
LeftHand  0.783575 3.93918 -8.18646
RightShoulder  1.98785e-016 -4.96962e-017 1.55301e-017
RightArm  -11.1885 17.2234 62.5961
RightForeArm  1.83081 1.54662 3.13201
RightHand  1.82849 -12.7747 -11.2983
LeftUpLeg  -58.6016 -15.2899 -23.0382
LeftLeg  77.6602 -10.4594 14.1909
LeftFoot  -20.4076 -0.105487 -0.760323
LeftToes  3.34876e-009 -9.68256e-011 -6.12847e-011
87
root  -17.2831 28.8125 -0.424827 106.286 73.9177 100.593
RightUpLeg  14.6728 8.55267 -12.7326
RightLeg  62.2257 20.3721 19.054
RightFoot  12.0363 -1.23507 5.34147
RightToes  -4.65663e-010 -1.59028e-015 9.93923e-017
Spine  64.1381 -4.19281 5.22289
Spine1  4.03017 0.923534 -15.9876
HEad  -66.099 -16.2431 14.1767
LeftShoulder1  9.93923e-017 0 1.22299e-017
LeftArm  61.4302 7.26835 -86.5447
LeftForeArm  -43.1576 -23.4613 7.68299
LeftHand  0.805115 4.27564 -8.12039
RightShoulder  1.98785e-016 -4.96962e-017 1.55301e-017
RightArm  -10.0844 14.6346 65.3483
RightForeArm  3.08525 2.45976 4.31605
RightHand  1.90614 -12.9573 -11.9672
LeftUpLeg  -56.7419 -14.1993 -20.6479
LeftLeg  74.0005 -9.29377 14.5992
LeftFoot  -21.0949 -0.146941 -1.27631
LeftToes  3.34876e-009 -9.68256e-011 -6.12847e-011
88
root  -16.4094 29.9935 -0.460032 101.268 75.9977 93.8765
RightUpLeg  9.6934 9.08091 -12.0852
RightLeg  62.3753 19.7306 18.0598
RightFoot  18.4231 -3.01921 10.6595
RightToes  -4.65663e-010 -1.59028e-015 9.93923e-017
Spine  61.8098 -1.9144 2.73649
Spine1  2.78555 1.42812 -15.0367
HEad  -64.4043 -14.1352 13.585
LeftShoulder1  9.93923e-017 0 1.22299e-017
LeftArm  50.473 4.23259 -86.3527
LeftForeArm  -34.839 -20.6925 1.78006
LeftHand  0.826279 4.66171 -7.88296
RightShoulder  1.98785e-016 -4.96962e-017 1.55301e-017
RightArm  -4.67687 10.7708 68.3848
RightForeArm  -0.977094 5.67717 4.62887
RightHand  1.81053 -12.7935 -10.9084
LeftUpLeg  -54.5331 -13.5296 -18.2975
LeftLeg  70.1787 -7.99355 14.9628
LeftFoot  -21.7513 -0.213087 -2.05384
LeftToes  3.34876e-009 -9.68256e-011 -6.12847e-011
89
root  -15.3672 31.1728 -0.460653 95.5159 78.2343 86.9913
RightUpLeg  4.2824 8.58557 -11.0527
RightLeg  63.9942 18.0594 16.0319
RightFoot  18.3716 -3.25037 11.567
RightToes  -4.65663e-010 -1.59028e-015 9.93923e-017
Spine  58.6123 -0.178981 0.775647
Spine1  2.66608 1.99983 -13.4515
HEad  -62.3119 -11.97 12.4658
LeftShoulder1  9.93923e-017 0 1.22299e-017
LeftArm  37.4995 0.690965 -85.6517
LeftForeArm  -27.4732 -17.3779 -2.28772
LeftHand  0.865065 5.28726 -7.52535
RightShoulder  1.98785e-016 -4.96962e-017 1.55301e-017
RightArm  5.30528 5.89515 71.7684
RightForeArm  -10.654 10.0593 3.34148
RightHand  1.61198 -12.253 -9.12501
LeftUpLeg  -51.3648 -12.5472 -15.7956
LeftLeg  66.2544 -6.74127 14.7868
LeftFoot  -22.5409 -0.265067 -2.49851
LeftToes  3.34876e-009 -9.68256e-011 -6.12847e-011
90
root  -14.2114 32.3366 -0.451444 87.3486 80.8022 78.3004
RightUpLeg  -1.4232 7.721 -9.0845
RightLeg  66.3241 16.0132 13.1579
RightFoot  13.1601 -2.23039 9.51631
RightToes  -4.65663e-010 -1.59028e-015 9.93923e-017
Spine  54.8086 0.83087 -0.346668
Spine1  3.40463 2.52362 -11.8793
HEad  -59.9612 -9.58626 11.3192
LeftShoulder1  9.93923e-017 0 1.22299e-017
LeftArm  25.8077 -2.7262 -84.3949
LeftForeArm  -21.643 -15.0181 -3.91743
LeftHand  0.895244 5.88971 -6.07579
RightShoulder  1.98785e-016 -4.96962e-017 1.55301e-017
RightArm  14.7248 0.296579 75.3837
RightForeArm  -19.9448 13.1647 1.66872
RightHand  1.52758 -11.9208 -8.62413
LeftUpLeg  -47.4018 -11.0199 -12.9831
LeftLeg  62.3196 -5.6617 14.1139
LeftFoot  -23.362 -0.283571 -2.48048
LeftToes  3.34876e-009 -9.68256e-011 -6.12847e-011
91
root  -13.0142 33.4317 -0.431409 76.2899 83.1953 67.0864
RightUpLeg  -7.49741 6.93095 -6.50172
RightLeg  68.4768 14.0598 9.51493
RightFoot  6.54561 -1.27896 7.38071
RightToes  -4.65663e-010 -1.59028e-015 9.93923e-017
Spine  50.5554 1.24316 -0.949042
Spine1  4.58761 2.72249 -10.3819
HEad  -57.2981 -6.81743 10.421
LeftShoulder1  9.93923e-017 0 1.22299e-017
LeftArm  18.1303 -5.70346 -83.1418
LeftForeArm  -18.2527 -14.5859 -3.52327
LeftHand  0.87008 5.92792 -3.58103
RightShoulder  1.98785e-016 -4.96962e-017 1.55301e-017
RightArm  21.9138 -5.87312 78.7046
RightForeArm  -27.0443 15.0183 0.304737
RightHand  1.56133 -12.0085 -8.98744
LeftUpLeg  -43.0354 -9.73676 -10.2007
LeftLeg  58.2878 -4.63657 13.3308
LeftFoot  -23.9813 -0.295874 -2.4456
LeftToes  3.34876e-009 -9.68256e-011 -6.12847e-011
